<svg width="352" height="70" viewBox="0 0 352 70" fill="none" xmlns="http://www.w3.org/2000/svg">
<path d="M63.5185 18.8501H55.112C56.3149 17.0332 56.9837 14.8927 57.037 12.6886C57.085 11.0095 56.8019 9.33794 56.205 7.77662C55.6082 6.21529 54.7102 4.79717 53.5663 3.60935C52.4224 2.42153 51.0567 1.4891 49.5531 0.86935C48.0495 0.249596 46.4397 -0.0444003 44.8227 0.00542157C43.3291 0.0385194 41.8583 0.391906 40.5026 1.04339C39.1468 1.69488 37.9354 2.63039 36.9444 3.79119C36.2135 4.65695 35.5625 5.59207 35 6.58424C34.4375 5.59207 33.7865 4.65695 33.0556 3.79119C32.0646 2.63039 30.8532 1.69488 29.4974 1.04339C28.1417 0.391906 26.6709 0.0385194 25.1773 0.00542157C23.5603 -0.0444003 21.9505 0.249596 20.4469 0.86935C18.9433 1.4891 17.5776 2.42153 16.4337 3.60935C15.2898 4.79717 14.3918 6.21529 13.795 7.77662C13.1981 9.33794 12.915 11.0095 12.963 12.6886C13.0163 14.8927 13.6851 17.0332 14.888 18.8501H6.48148C4.76249 18.8501 3.1139 19.5592 1.89838 20.8214C0.682868 22.0835 1.35111e-07 23.7954 1.35111e-07 25.5804V36.3488C-0.000304825 37.9003 0.515645 39.4043 1.46053 40.6062C2.40541 41.8081 3.72119 42.6341 5.18518 42.9444V63.2698C5.18518 65.0547 5.86805 66.7666 7.08357 68.0288C8.29908 69.2909 9.94767 70 11.6667 70H58.3333C60.0523 70 61.7009 69.2909 62.9164 68.0288C64.1319 66.7666 64.8148 65.0547 64.8148 63.2698V42.9444C66.2788 42.6341 67.5946 41.8081 68.5395 40.6062C69.4844 39.4043 70.0003 37.9003 70 36.3488V25.5804C70 23.7954 69.3171 22.0835 68.1016 20.8214C66.8861 19.5592 65.2375 18.8501 63.5185 18.8501ZM62.2222 35.0027H38.8889V26.9264H62.2222V35.0027ZM42.7778 9.14846C43.0646 8.81785 43.4142 8.55242 43.8046 8.36884C44.195 8.18526 44.6178 8.08751 45.0463 8.08172H45.1597C45.7081 8.08011 46.2513 8.19304 46.7568 8.41381C47.2623 8.63458 47.72 8.95867 48.1024 9.36681C48.4849 9.77494 48.7844 10.2588 48.9831 10.7895C49.1819 11.3203 49.2758 11.8872 49.2593 12.4564C49.2537 12.9013 49.1595 13.3403 48.9827 13.7457C48.806 14.1511 48.5503 14.5141 48.2319 14.812C45.9958 16.8714 42.3176 17.9281 39.2778 18.4328C39.7639 15.2898 40.7815 11.4704 42.7778 9.14846ZM21.9398 9.32682C22.7091 8.5366 23.7453 8.0898 24.8273 8.08172H24.9537C25.3822 8.08751 25.805 8.18526 26.1954 8.36884C26.5858 8.55242 26.9354 8.81785 27.2222 9.14846C29.2056 11.4704 30.2231 15.2864 30.706 18.4396C27.6921 17.9314 23.9815 16.8748 21.7681 14.812C21.4497 14.5141 21.194 14.1511 21.0172 13.7457C20.8405 13.3403 20.7463 12.9013 20.7407 12.4564C20.7264 11.8776 20.8253 11.3019 21.0314 10.764C21.2375 10.2261 21.5465 9.73715 21.9398 9.32682ZM7.77778 26.9264H31.1111V35.0027H7.77778V26.9264ZM12.963 43.079H31.1111V61.9237H12.963V43.079ZM38.8889 61.9237V43.079H57.037V61.9237H38.8889Z" fill="url(#paint0_linear_212_88)"/>
<path d="M85.7661 24.7637C85.7661 23.9518 86.0881 23.168 86.7319 22.4121C87.4038 21.6283 88.2157 21.2363 89.1675 21.2363L95.3823 21.1943V20.6484C95.4663 15.9173 96.5301 12.208 98.5737 9.52051C100.617 6.83301 103.935 5.53125 108.526 5.61523L113.145 5.69922C114.293 5.69922 115.273 6.11914 116.084 6.95898C116.896 7.77083 117.302 8.75065 117.302 9.89844C117.302 11.0462 116.896 12.012 116.084 12.7959C115.273 13.5798 114.279 13.9717 113.103 13.9717L108.4 13.2998C106.944 13.2998 105.88 13.5238 105.208 13.9717C104.565 14.3916 104.145 15.1475 103.949 16.2393C103.781 17.3311 103.711 18.8848 103.739 20.9004L103.781 21.2783L112.263 21.3203C113.383 21.3203 114.321 21.6982 115.077 22.4541C115.861 23.21 116.252 24.1198 116.252 25.1836C116.252 26.0794 115.889 26.9473 115.161 27.7871C114.433 28.599 113.607 29.0049 112.683 29.0049L103.781 29.0889L103.865 62.9346V62.9766C103.865 64.0964 103.445 65.0482 102.605 65.832C101.793 66.5879 100.813 66.9658 99.6655 66.9658C98.5177 66.9658 97.5239 66.5879 96.6841 65.832C95.8722 65.0482 95.4663 64.0964 95.4663 62.9766V62.9346L95.3823 29.0049L89.7554 28.9629C88.6356 28.9629 87.6838 28.571 86.8999 27.7871C86.144 27.0033 85.7661 25.9954 85.7661 24.7637ZM130.358 15.6934C129.071 15.6934 128.021 15.3014 127.209 14.5176C126.397 13.7057 125.977 12.7119 125.949 11.5361L125.865 8.34473C125.865 7.28092 126.341 6.42708 127.293 5.7832C128.245 5.11133 129.155 4.77539 130.023 4.77539C131.198 4.77539 132.178 5.18132 132.962 5.99316C133.774 6.80501 134.194 7.78483 134.222 8.93262L134.264 11.4521C134.264 12.5439 133.9 13.5238 133.172 14.3916C132.444 15.2594 131.506 15.6934 130.358 15.6934ZM125.823 23.6299C125.823 22.5661 126.271 21.6982 127.167 21.0264C128.063 20.3545 128.931 20.0186 129.771 20.0186C131.002 20.0186 132.052 20.3825 132.92 21.1104C133.788 21.8382 134.222 22.804 134.222 24.0078V24.0498L134.306 62.9346C134.306 64.0544 133.886 65.0062 133.046 65.79C132.234 66.5739 131.254 66.9658 130.107 66.9658C128.931 66.9658 127.937 66.5739 127.125 65.79C126.313 64.9782 125.907 64.0124 125.907 62.8926L125.823 23.6299ZM174.993 60.3311C173.481 61.7868 171.675 63.2565 169.576 64.7402C167.476 66.196 165.013 66.9238 162.185 66.9238C158.518 66.9238 155.466 65.958 153.031 64.0264C150.595 62.0667 148.804 59.7992 147.656 57.2236C146.76 55.18 146.214 53.1644 146.018 51.1768C145.85 49.1611 145.766 47.2715 145.766 45.5078V24.3018C145.766 23.154 146.172 22.1742 146.984 21.3623C147.824 20.5225 148.818 20.1025 149.965 20.1025C151.113 20.1025 152.093 20.5225 152.905 21.3623C153.745 22.1742 154.165 23.154 154.165 24.3018V45.5078C154.165 47.1315 154.235 48.6572 154.375 50.085C154.543 51.4847 154.865 52.7165 155.34 53.7803C155.9 55.012 156.74 56.1178 157.86 57.0977C158.98 58.0495 160.394 58.5254 162.101 58.5254C166.244 58.5254 169.422 56.9437 171.633 53.7803C173.873 50.6169 174.979 46.3477 174.951 40.9727L174.909 24.2178C174.909 23.07 175.315 22.0902 176.127 21.2783C176.966 20.4385 177.96 20.0186 179.108 20.0186C180.284 20.0186 181.278 20.4385 182.089 21.2783C182.901 22.0902 183.307 23.084 183.307 24.2598L183.391 62.8506C183.391 63.9984 183.069 64.9922 182.425 65.832C181.81 66.6439 180.928 67.0498 179.78 67.0498C178.632 67.0498 177.75 66.6439 177.134 65.832C176.519 64.9922 176.043 63.9984 175.707 62.8506L174.993 60.3311ZM212.446 19.9766C215.162 19.9766 217.542 20.6344 219.585 21.9502C221.657 23.266 223.35 24.8617 224.666 26.7373C226.234 24.9176 228.124 23.3359 230.335 21.9922C232.547 20.6204 235.01 19.9346 237.726 19.9346C241.309 19.9346 244.277 20.9004 246.628 22.832C249.008 24.7357 250.771 27.2412 251.919 30.3486C253.067 33.4561 253.641 36.8154 253.641 40.4268L253.683 62.8086C253.683 63.9284 253.277 64.8942 252.465 65.7061C251.653 66.5179 250.659 66.9238 249.484 66.9238C248.308 66.9238 247.314 66.5179 246.502 65.7061C245.69 64.8942 245.284 63.9284 245.284 62.8086L245.242 40.5107C245.242 38.3831 245.046 36.3955 244.654 34.5479C244.263 32.6722 243.549 31.1605 242.513 30.0127C241.477 28.8649 239.979 28.291 238.02 28.291C235.948 28.291 234.17 28.8649 232.687 30.0127C231.231 31.1605 230.111 32.6722 229.327 34.5479C228.571 36.3955 228.194 38.3971 228.194 40.5527L228.236 62.9346C228.236 64.0544 227.816 65.0202 226.976 65.832C226.164 66.6159 225.184 67.0078 224.036 67.0078C222.861 67.0078 221.867 66.6019 221.055 65.79C220.243 64.9782 219.837 64.0124 219.837 62.8926V40.5947C219.837 37.9632 219.389 35.7376 218.493 33.918C217.626 32.0983 216.492 30.7266 215.092 29.8027C213.72 28.8509 212.306 28.375 210.851 28.375C208.779 28.375 206.917 29.3408 205.266 31.2725C203.614 33.2041 202.788 36.2135 202.788 40.3008V62.9346C202.788 64.0544 202.368 65.0202 201.528 65.832C200.717 66.6159 199.737 67.0078 198.589 67.0078C197.441 67.0078 196.447 66.6019 195.608 65.79C194.796 64.9782 194.39 64.0124 194.39 62.8926V24.0498C194.39 22.902 194.6 21.9362 195.02 21.1523C195.468 20.3405 196.279 19.9346 197.455 19.9346C198.379 19.9346 199.233 20.2285 200.017 20.8164C200.801 21.4043 201.431 22.3841 201.906 23.7559L202.704 26.0654C203.6 24.2178 204.972 22.748 206.82 21.6562C208.695 20.5365 210.571 19.9766 212.446 19.9766ZM309.907 43.3662C309.907 46.4736 309.361 49.4271 308.269 52.2266C307.177 55.026 305.638 57.5176 303.65 59.7012C301.663 61.8568 299.325 63.5645 296.637 64.8242C293.978 66.084 291.066 66.7139 287.903 66.7139C285.3 66.7139 282.682 66.056 280.051 64.7402C277.447 63.4245 275.347 61.6188 273.752 59.3232L273.248 62.7246C273.08 63.8724 272.702 64.8662 272.114 65.7061C271.554 66.5179 270.7 66.9238 269.552 66.9238C268.405 66.9238 267.411 66.5179 266.571 65.7061C265.759 64.8662 265.353 63.8724 265.353 62.7246V9.10059C265.353 7.9528 265.759 6.97298 266.571 6.16113C267.411 5.32129 268.405 4.90137 269.552 4.90137C270.7 4.90137 271.68 5.32129 272.492 6.16113C273.332 6.97298 273.752 7.9528 273.752 9.10059V26.7793C275.571 24.6797 277.601 23.014 279.841 21.7822C282.108 20.5505 284.698 19.9346 287.609 19.9346C290.465 19.9346 293.222 20.4805 295.882 21.5723C298.541 22.6641 300.893 24.2038 302.936 26.1914C305.26 28.487 306.996 31.1325 308.143 34.1279C309.319 37.1234 309.907 40.2028 309.907 43.3662ZM287.987 58.3154C290.591 58.3154 292.914 57.6156 294.958 56.2158C297.001 54.8161 298.611 52.9824 299.787 50.7148C300.963 48.4193 301.551 45.9697 301.551 43.3662C301.551 40.7627 300.949 38.3132 299.745 36.0176C298.569 33.694 296.945 31.8184 294.874 30.3906C292.802 28.9349 290.437 28.207 287.777 28.207C285.118 28.207 282.752 28.8929 280.68 30.2646C278.609 31.6364 276.985 33.4561 275.809 35.7236C274.634 37.9912 274.046 40.4688 274.046 43.1562C274.046 45.1159 274.382 47.0335 275.053 48.9092C275.753 50.7848 276.733 52.4225 277.993 53.8223C279.253 55.194 280.778 56.2858 282.57 57.0977C284.362 57.9095 286.167 58.3154 287.987 58.3154ZM324.013 15.6934C322.725 15.6934 321.675 15.3014 320.864 14.5176C320.052 13.7057 319.632 12.7119 319.604 11.5361L319.52 8.34473C319.52 7.28092 319.996 6.42708 320.948 5.7832C321.899 5.11133 322.809 4.77539 323.677 4.77539C324.853 4.77539 325.833 5.18132 326.617 5.99316C327.428 6.80501 327.848 7.78483 327.876 8.93262L327.918 11.4521C327.918 12.5439 327.554 13.5238 326.826 14.3916C326.099 15.2594 325.161 15.6934 324.013 15.6934ZM319.478 23.6299C319.478 22.5661 319.926 21.6982 320.822 21.0264C321.717 20.3545 322.585 20.0186 323.425 20.0186C324.657 20.0186 325.707 20.3825 326.575 21.1104C327.442 21.8382 327.876 22.804 327.876 24.0078V24.0498L327.96 62.9346C327.96 64.0544 327.54 65.0062 326.7 65.79C325.889 66.5739 324.909 66.9658 323.761 66.9658C322.585 66.9658 321.591 66.5739 320.78 65.79C319.968 64.9782 319.562 64.0124 319.562 62.8926L319.478 23.6299Z" fill="url(#paint1_linear_212_88)"/>
<defs>
<linearGradient id="paint0_linear_212_88" x1="-5.18519" y1="7.875" x2="64.8148" y2="83.4167" gradientUnits="userSpaceOnUse">
<stop stop-color="#E7950E"/>
<stop offset="1" stop-color="#D7CB63"/>
</linearGradient>
<linearGradient id="paint1_linear_212_88" x1="84" y1="-1.99998" x2="339" y2="66" gradientUnits="userSpaceOnUse">
<stop stop-color="#FFFDEB"/>
<stop offset="1" stop-color="#E4B706"/>
</linearGradient>
</defs>
</svg>
