<svg width="70" height="70" viewBox="0 0 70 70" fill="none" xmlns="http://www.w3.org/2000/svg">
<path d="M63.5185 18.8501H55.112C56.3149 17.0332 56.9837 14.8927 57.037 12.6886C57.085 11.0095 56.8019 9.33794 56.205 7.77662C55.6082 6.21529 54.7102 4.79717 53.5663 3.60935C52.4224 2.42153 51.0567 1.4891 49.5531 0.86935C48.0495 0.249596 46.4397 -0.0444003 44.8227 0.00542157C43.3291 0.0385194 41.8583 0.391906 40.5026 1.04339C39.1468 1.69488 37.9354 2.63039 36.9444 3.79119C36.2135 4.65695 35.5625 5.59207 35 6.58424C34.4375 5.59207 33.7865 4.65695 33.0556 3.79119C32.0646 2.63039 30.8532 1.69488 29.4974 1.04339C28.1417 0.391906 26.6709 0.0385194 25.1773 0.00542157C23.5603 -0.0444003 21.9505 0.249596 20.4469 0.86935C18.9433 1.4891 17.5776 2.42153 16.4337 3.60935C15.2898 4.79717 14.3918 6.21529 13.795 7.77662C13.1981 9.33794 12.915 11.0095 12.963 12.6886C13.0163 14.8927 13.6851 17.0332 14.888 18.8501H6.48148C4.76249 18.8501 3.1139 19.5592 1.89838 20.8214C0.682869 22.0835 1.35111e-07 23.7954 1.35111e-07 25.5804V36.3488C-0.000304825 37.9003 0.515645 39.4043 1.46053 40.6062C2.40541 41.8081 3.72119 42.6341 5.18519 42.9444V63.2698C5.18519 65.0547 5.86805 66.7666 7.08357 68.0288C8.29908 69.2909 9.94767 70 11.6667 70H58.3333C60.0523 70 61.7009 69.2909 62.9164 68.0288C64.1319 66.7666 64.8148 65.0547 64.8148 63.2698V42.9444C66.2788 42.6341 67.5946 41.8081 68.5395 40.6062C69.4844 39.4043 70.0003 37.9003 70 36.3488V25.5804C70 23.7954 69.3171 22.0835 68.1016 20.8214C66.8861 19.5592 65.2375 18.8501 63.5185 18.8501ZM62.2222 35.0027H38.8889V26.9264H62.2222V35.0027ZM42.7778 9.14846C43.0646 8.81785 43.4142 8.55242 43.8046 8.36884C44.195 8.18526 44.6178 8.08751 45.0463 8.08172H45.1597C45.7081 8.08011 46.2513 8.19304 46.7568 8.41381C47.2623 8.63458 47.72 8.95867 48.1024 9.36681C48.4849 9.77494 48.7844 10.2588 48.9831 10.7895C49.1819 11.3203 49.2758 11.8872 49.2593 12.4564C49.2537 12.9013 49.1595 13.3403 48.9827 13.7457C48.806 14.1511 48.5503 14.5141 48.2319 14.812C45.9958 16.8714 42.3176 17.9281 39.2778 18.4328C39.7639 15.2898 40.7815 11.4704 42.7778 9.14846ZM21.9398 9.32682C22.7091 8.5366 23.7453 8.08979 24.8273 8.08172H24.9537C25.3822 8.08751 25.805 8.18526 26.1954 8.36884C26.5858 8.55242 26.9354 8.81785 27.2222 9.14846C29.2056 11.4704 30.2231 15.2864 30.706 18.4396C27.6921 17.9314 23.9815 16.8748 21.7681 14.812C21.4497 14.5141 21.194 14.1511 21.0172 13.7457C20.8405 13.3403 20.7463 12.9013 20.7407 12.4564C20.7264 11.8776 20.8253 11.3019 21.0314 10.764C21.2375 10.2261 21.5465 9.73715 21.9398 9.32682ZM7.77778 26.9264H31.1111V35.0027H7.77778V26.9264ZM12.963 43.079H31.1111V61.9237H12.963V43.079ZM38.8889 61.9237V43.079H57.037V61.9237H38.8889Z" fill="url(#paint0_linear_212_89)"/>
<defs>
<linearGradient id="paint0_linear_212_89" x1="-5.18519" y1="7.875" x2="64.8148" y2="83.4167" gradientUnits="userSpaceOnUse">
<stop stop-color="#E7950E"/>
<stop offset="1" stop-color="#D7CB63"/>
</linearGradient>
</defs>
</svg>
